<svg xmlns= "http //www.w3.org/2000/svg"
aria-hidden="true" focusable="false" viewBox="0 0 512 512"
>
<path d="M14.96 15.99a5.1 5.1 0 0 1-2.27 4.15A10.09 10.09 0 0 1 6.36 22a12.3 12.3 0 0 1-2.61-.25 19 19 0 0 1-3.13-.92L0 20.58v-1.79a16.53 16.53 0 0 0 1.91 1 11.39 11.39 0 0 0 4.61 1.05 6.58 6.58 0 0 0 4.49-1.58 3.26 3.26 0 0 0 .08-5.58 11.42 11.42 0 0 0-3.48-2l-2-.81A12.19 12.19 0 0 1 .93 8.14a4 4 0 0 1-.86-2.76c0-1.38.8-2.63 2.42-3.75A9.7 9.7 0 0 1 8.12-.01a18.4 18.4 0 0 1 3.28.55l2.22.56v1.84c-.84-.41-1.5-.72-2-.93a10.56 10.56 0 0 0-3.74-.93 5.56 5.56 0 0 0-3.83 1.36 3.94 3.94 0 0 0-1.56 3 2.75 2.75 0 0 0 .93 2 7.28 7.28 0 0 0 2.93 1.54l2.74 1.12a13.12 13.12 0 0 1 4.84 2.89 4.32 4.32 0 0 1 1.03 3zm34.01 5.76h-3.28l-1-2.82-2.07-4.86H32.29l-2.19 4.87-.93 2.82h-2.11l1.49-2.79 8.08-18V.22h2.58l8.27 18.72zm-6.83-8.68L37.49 2.51 32.8 13.07zm34.26 2.92a5.1 5.1 0 0 1-2.27 4.15A10.14 10.14 0 0 1 67.79 22a12.3 12.3 0 0 1-2.61-.25 19 19 0 0 1-3.13-.92l-.62-.25v-1.79a17.4 17.4 0 0 0 1.91 1 11.44 11.44 0 0 0 4.62 1.05 6.58 6.58 0 0 0 4.49-1.58 4.14 4.14 0 0 0 1.6-3.13 4.24 4.24 0 0 0-1.53-2.45 11.42 11.42 0 0 0-3.48-2l-2-.81a12.36 12.36 0 0 1-4.68-2.73 4.09 4.09 0 0 1-.86-2.76q0-2.07 2.42-3.75a9.72 9.72 0 0 1 5.63-1.64 18.26 18.26 0 0 1 3.28.55l2.22.56v1.84c-.83-.41-1.5-.72-2-.93a10.55 10.55 0 0 0-3.75-.93 5.53 5.53 0 0 0-3.82 1.36 4 4 0 0 0-1.57 3 2.76 2.76 0 0 0 .94 2 7.21 7.21 0 0 0 2.93 1.54l2.73 1.12a13.18 13.18 0 0 1 4.85 2.89 4.37 4.37 0 0 1 1.04 3zm28.58 0a5.1 5.1 0 0 1-2.27 4.15A10.09 10.09 0 0 1 96.38 22a12.3 12.3 0 0 1-2.61-.25 19 19 0 0 1-3.13-.92l-.62-.25v-1.79a16.53 16.53 0 0 0 1.91 1 11.43 11.43 0 0 0 4.61 1.05 6.56 6.56 0 0 0 4.49-1.58 4.15 4.15 0 0 0 1.61-3.13 4.24 4.24 0 0 0-1.53-2.45 11.42 11.42 0 0 0-3.48-2l-2-.81a12.19 12.19 0 0 1-4.68-2.73 4 4 0 0 1-.86-2.76q0-2.07 2.42-3.75a9.72 9.72 0 0 1 5.63-1.64 18.4 18.4 0 0 1 3.28.55l2.22.56v1.84c-.83-.41-1.5-.72-2-.93a10.65 10.65 0 0 0-3.75-.93 5.57 5.57 0 0 0-3.83 1.36 3.94 3.94 0 0 0-1.56 3 2.72 2.72 0 0 0 .94 2 7.16 7.16 0 0 0 2.92 1.54l2.74 1.12a13 13 0 0 1 4.84 2.89 4.32 4.32 0 0 1 1.04 3zm17.84 5.76h-2.81l.11-4.74v-12l-.19-4.78h2.85l-.15 4.81v12zM168.87.21l-.27 4.75v12.05l.23 4.74h-2.9l.28-4.74v-5.82h-13.12v5.82l.27 4.74h-3l.24-4.74V4.94l-.24-4.75h2.93l-.23 4.75v5.08h13.15V4.94l-.24-4.75zm36.4 10.82q0 5.29-2.73 8.12t-7.78 2.79q-5 0-7.69-2.7c-1.9-1.88-2.85-4.63-2.85-8.27s1-6.37 2.85-8.28 4.39-2.72 7.7-2.72a10.63 10.63 0 0 1 7.74 2.75c1.84 1.88 2.76 4.63 2.76 8.31zm-2.73 0q0-4.94-2-7.54a7.78 7.78 0 0 0-11.44-.18q-2.11 2.58-2.11 7.68 0 4.77 2.11 7.41a6.86 6.86 0 0 0 5.7 2.63 6.94 6.94 0 0 0 5.7-2.63q2.04-2.63 2.04-7.36zm32.45 10.72h-14.38l.24-4.74V4.94l-.24-4.75h2.94l-.23 4.75v15.61h6.25l5.42-.18zm27.73-20.21l-6-.21h-5.71v8.8h4.49c.52 0 1.27 0 2.26-.09s2-.1 2.93-.19v1.61l-5.19-.31h-4.49v5.86l.15 4.74h-2.8l.19-4.74v-12L248.4.23h14.32zm33.39 9.49q0 5.29-2.73 8.12t-7.77 2.79c-3.32 0-5.88-.9-7.7-2.7s-2.85-4.63-2.85-8.27.95-6.37 2.85-8.28 4.39-2.72 7.7-2.72a10.63 10.63 0 0 1 7.74 2.75c1.86 1.88 2.76 4.63 2.76 8.31zm-2.73 0q0-4.94-2-7.54a7.78 7.78 0 0 0-11.44-.18q-2.12 2.58-2.11 7.68 0 4.77 2.11 7.41a6.86 6.86 0 0 0 5.7 2.63 6.94 6.94 0 0 0 5.7-2.63q2.04-2.63 2.04-7.36zm36.09 10.72h-3.71l-4.68-4.71-5.48-5.1h-1.39v5.15l.19 4.71h-2.88l.31-4.71V4.99l-.24-4.78h7.23a13.18 13.18 0 0 1 6.64 1.55q2.65 1.59 2.66 3.76a5.27 5.27 0 0 1-2.24 4.24 11.07 11.07 0 0 1-7.06 2l5.55 5.24zm-4.14-15.74a3.77 3.77 0 0 0-2.22-3.38 13.5 13.5 0 0 0-6.3-1.21h-2.6v9.45c4 0 6.84-.44 8.67-1.33a3.81 3.81 0 0 0 2.45-3.53zm36.44 4.86c0 3.66-1 6.41-3 8.25s-4.71 2.63-8.36 2.63h-7.1l.27-5.23V4.99l-.2-4.78h6.33q5.82 0 9 2.7t3.06 7.96zm-2.57.13q0-5.05-2.39-7.38t-7.18-2.29h-3.68v19.24h4.89q4.07 0 6.13-2.19 2.24-2.37 2.24-7.38z"/>
</svg>